<svg xmlns="http://www.w3.org/2000/svg" viewBox="0 0 16 2.3"><defs><style>.cls-1{fill:#fff;}</style></defs><g id="Layer_2" data-name="Layer 2"><g id="Layer_1-2" data-name="Layer 1"><path class="cls-1" d="M6.27.06A.1.1,0,0,0,6.18,0H.09A.09.09,0,0,0,0,.09H0V2.22a.08.08,0,0,0,.09.08H7a.08.08,0,0,0,.09-.08h0v0ZM3.44,1.28a.57.57,0,0,1-.11.29.71.71,0,0,1-.26.23.73.73,0,0,1-.38.08.85.85,0,0,1-.41-.09A.69.69,0,0,1,2,1.54.77.77,0,0,1,2,1.38a.56.56,0,0,1,0,.12.72.72,0,0,1-.24.25.79.79,0,0,1-.37.1H.72V.49h.57a.68.68,0,0,1,.37.09A.67.67,0,0,1,1.9.84.39.39,0,0,1,2,1,1,1,0,0,1,2,.84.77.77,0,0,1,2.31.58a1,1,0,0,1,.42-.1.74.74,0,0,1,.36.09.58.58,0,0,1,.24.2A.74.74,0,0,1,3.44,1H3.09A.34.34,0,0,0,3,.89.3.3,0,0,0,2.9.8a.41.41,0,0,0-.19,0,.46.46,0,0,0-.23.06A.39.39,0,0,0,2.32,1a.79.79,0,0,0-.06.22.54.54,0,0,0,.05.22.39.39,0,0,0,.15.16.46.46,0,0,0,.23.06.46.46,0,0,0,.2,0,.38.38,0,0,0,.16-.12l0-.05.17-.06H2.67V1.16h.77Zm1.1.57H3.46V.49h1V.71H3.79l-.18,0,.17.1v.28h.64V1.3H3.78v.32h.76Zm1.39,0H5.62l-.49-.62h0L4.82.83,4.89,1v.83H4.57V.49h.3l.75.94V.49h.31Zm-4.26-.7a.51.51,0,0,1,0,.24.43.43,0,0,1-.14.16.31.31,0,0,1-.21.07H1.06V.81L.83.73h.45a.38.38,0,0,1,.28.11A.45.45,0,0,1,1.67,1.15Zm7.87,0a.36.36,0,0,1-.22.06H9.13V.82L8.85.73h.51a.34.34,0,0,1,.17.05.19.19,0,0,1,.08.16A.18.18,0,0,1,9.54,1.11ZM15.91,0H6.67a.09.09,0,0,0-.09.09,0,0,0,0,0,0,0l.78,2.13a.08.08,0,0,0,.08,0h8.46A.08.08,0,0,0,16,2.22h0V.09A.09.09,0,0,0,15.91,0ZM8.74.73h-1L8,.81v.35h.63V1.4H8v.45H7.7V.49h1Zm2.39,1.12H9.65l-.52-.52v.52H8.81V.49h.54a.7.7,0,0,1,.32.05.47.47,0,0,1,.2.17A.35.35,0,0,1,10,.93a.36.36,0,0,1-.12.28.56.56,0,0,1-.32.14l.54.49V.49h1V.71h-.66L10.18.65l.19.12v.28H11V1.3h-.63v.32h.76Zm1.5,0h-.34L11.61,1,11.5.82l.07.21v.82h-.32V.49h.31l.75.94V.49h.32ZM14,1.5a.58.58,0,0,1-.24.25.75.75,0,0,1-.36.1h-.57V.49h.58a.67.67,0,0,1,.36.09A.61.61,0,0,1,14,.83a.67.67,0,0,1,.09.34A.68.68,0,0,1,14,1.5ZM14.51,1a.44.44,0,0,0,.2.05h0a1.34,1.34,0,0,1,.52.13.33.33,0,0,1,.16.27.35.35,0,0,1-.08.22.57.57,0,0,1-.23.15.9.9,0,0,1-.36,0,.88.88,0,0,1-.36-.06.61.61,0,0,1-.24-.17.46.46,0,0,1-.1-.25h.31a.32.32,0,0,0,.12.18.53.53,0,0,0,.25.07.63.63,0,0,0,.26,0,.16.16,0,0,0,.1-.13A.12.12,0,0,0,15,1.35a.82.82,0,0,0-.28-.05,1,1,0,0,1-.45-.13A.31.31,0,0,1,14.13.9a.4.4,0,0,1,.09-.21.5.5,0,0,1,.22-.13.94.94,0,0,1,.64,0,.56.56,0,0,1,.24.16.53.53,0,0,1,.11.24h-.32A.24.24,0,0,0,15,.81a.49.49,0,0,0-.25-.06.41.41,0,0,0-.16,0,.21.21,0,0,0-.1.06.12.12,0,0,0,0,.08.13.13,0,0,0,.06.1Zm-.77.14a.69.69,0,0,1-.05.24.43.43,0,0,1-.14.16.31.31,0,0,1-.21.07h-.22V.8l-.2-.07h.5a.41.41,0,0,1,.21.1.5.5,0,0,1,.11.31Z"/></g></g></svg>